Coordinates
version=1
nRows=5
nColumns=40
inDegrees=yes

Units are S.I. units (second, meters, Newtons, ...)
Angles are in degrees.

endheader
time	pelvis_tilt	pelvis_list	pelvis_rotation	pelvis_tx	pelvis_ty	pelvis_tz	hip_flexion_r	hip_adduction_r	hip_rotation_r	knee_angle_r	knee_angle_r_beta	ankle_angle_r	subtalar_angle_r	mtp_angle_r	hip_flexion_l	hip_adduction_l	hip_rotation_l	knee_angle_l	knee_angle_l_beta	ankle_angle_l	subtalar_angle_l	mtp_angle_l	lumbar_extension	lumbar_bending	lumbar_rotation	arm_flex_r	arm_add_r	arm_rot_r	elbow_flex_r	pro_sup_r	wrist_flex_r	wrist_dev_r	arm_flex_l	arm_add_l	arm_rot_l	elbow_flex_l	pro_sup_l	wrist_flex_l	wrist_dev_l
     44.68500000	     -2.55193740	     -3.23599152	     -4.77891926	      0.94669438	      0.92477801	      0.41762318	     27.94424935	     -0.82525864	    -13.00650144	     18.20233881	     18.20233881	      4.04131507	      1.57456397	      6.97533790	     -2.16263388	     -1.89704396	    -11.90780551	     11.88249462	     11.88249462	     17.70225072	     -4.96822471	     -7.20859262	     -9.29335388	      4.46195376	      1.84070659	    -15.53454236	    -14.69575424	    -14.38222916	     20.96976307	     47.87786818	      0.00000000	      0.00000000	     19.35000873	    -14.65920104	    -12.80532450	     76.99552588	     47.76805449	      0.00000000	      0.00000000
     44.69735714	     -2.50953480	     -3.29554917	     -4.80029040	      0.94805372	      0.92333807	      0.41914478	     27.30340794	     -0.55426977	    -13.40639566	     17.69164471	     17.69164471	      3.97776522	      1.80615478	      6.93566289	     -2.79554680	     -2.02977074	    -12.00324929	     12.01203218	     12.01203218	     18.36153601	     -4.75199922	     -6.89315297	     -9.15172068	      4.62785467	      1.82116024	    -16.14472760	    -14.68831976	    -14.51976913	     21.19858691	     47.86090366	      0.00000000	      0.00000000	     19.05318882	    -14.61105412	    -12.74996484	     78.16559750	     47.78735418	      0.00000000	      0.00000000
     44.70971429	     -2.62370398	     -3.20069733	     -4.86573176	      0.94934373	      0.92170091	      0.42078121	     27.04532889	     -0.46582089	    -13.52216743	     17.75997034	     17.75997034	      3.86781783	      1.74900858	      6.96045214	     -3.24470619	     -1.99482883	    -11.98591786	     12.10502655	     12.10502655	     18.65454486	     -4.81552746	     -6.97391097	     -8.74421587	      4.62514321	      1.73701564	    -16.27164124	    -14.65247358	    -14.52852872	     21.17555569	     47.86073122	      0.00000000	      0.00000000	     19.04689176	    -14.60673046	    -12.74404739	     78.22712578	     47.78819453	      0.00000000	      0.00000000
     44.72207143	     -2.53055550	     -3.49045470	     -4.73646613	      0.95106313	      0.92045868	      0.42267181	     26.20458678	      0.03277064	    -13.69783967	     17.43604825	     17.43604825	      3.21673253	      1.24982571	      5.44455463	     -3.66575620	     -2.53272003	    -12.11824797	     12.90736251	     12.90736251	     20.06662005	     -4.16389596	     -5.45377851	     -8.69663956	      4.96156712	      1.58380477	    -16.96254863	    -14.49233342	    -14.80084944	     21.91393987	     47.81603650	      0.00000000	      0.00000000	     18.09702679	    -14.70293271	    -12.37255480	     80.30779600	     47.80519750	      0.00000000	      0.00000000
     44.73442857	     -2.50002766	     -3.57446540	     -4.64285027	      0.95272303	      0.91920451	      0.42459323	     25.59325847	      0.29663722	    -13.63117067	     17.42387615	     17.42387615	      1.93564098	      0.47555361	      1.86187423	     -3.95777060	     -2.88901956	    -12.43146796	     13.82328148	     13.82328148	     21.82053591	     -3.10066793	     -2.82682742	     -8.48305015	      5.14209443	      1.34173616	    -17.07983134	    -14.34747313	    -14.93134365	     22.31225119	     47.73441797	      0.00000000	      0.00000000	     17.64399744	    -14.74623023	    -12.26423461	     80.57777452	     47.82976752	      0.00000000	      0.00000000
